# xmcd CD database file
#
# Track frame offsets:
#	150
#	12731
#	28419
#	40200
#	53098
#	64218
#	78206
#	88304
#	101897
#	114057
#	127877
#	141859
#	153256
#	165013
#	177518
#	191768
#	206319
#	217599
#	230017
#
# Disc length: 3343 seconds
#
# Revision: 0
# Processed by: cddbd v1.5.1PL0 Copyright (c) Steve Scherf et al.
# Submitted via: CDex 1.51
#
DISCID=fc0d0d13
DTITLE=Kevin Beanland - The Best of - Air Canada's Flying Fiddler
DYEAR=1998
DGENRE=Country
TTITLE0=Momma's Tears
TTITLE1=Teardorps On Her Pillow
TTITLE2=Kevin's Fiddle Combo
TTITLE3=Home Ties
TTITLE4=A Young Boy's Dream
TTITLE5=Our Living From The Sea
TTITLE6=Flying Fiddler's Reel
TTITLE7=Another Change In Life
TTITLE8=Trucker Kevin John
TTITLE9=Sing Us Some "I'se Da Bye"
TTITLE10=Paddy On the Turnpike - The Old Man and The Old Woman
TTITLE11=Heading For Newfoundland
TTITLE12=The Court Case Of Tom
TTITLE13=Kevin John's Jig
TTITLE14=The Moose Song
TTITLE15=Ode To Mosey
TTITLE16=Casey's Fiddle Reels
TTITLE17=You'll Never Hold Me
TTITLE18=Lost To The Sea
EXTD=YEAR: 1998
EXTT0=
EXTT1=
EXTT2=
EXTT3=
EXTT4=
EXTT5=
EXTT6=
EXTT7=
EXTT8=
EXTT9=
EXTT10=
EXTT11=
EXTT12=
EXTT13=
EXTT14=
EXTT15=
EXTT16=
EXTT17=
EXTT18=
PLAYORDER=
